<?xml version="1.0" encoding="UTF-8"?>
<svg xmlns="http://www.w3.org/2000/svg" width="520" height="116" viewBox="0 0 520 116" fill="none">
  <path d="M483.414 92.2868C483.414 84.7795 489.357 78.6885 496.674 78.6885C503.994 78.6885 509.93 84.7795 509.93 92.2868C509.93 99.7947 503.994 105.882 496.674 105.882C489.357 105.882 483.414 99.7947 483.414 92.2868Z" fill="#040D1F"></path>
  <path d="M60.5389 56.2186C60.5389 47.6053 58.9165 41.2152 55.6707 37.0523C52.4207 32.8932 47.4978 30.8156 40.8796 30.8156H33.8394V83.4865H39.2258C46.577 83.4865 51.964 81.2519 55.394 76.7659C58.8203 72.2883 60.5389 65.4379 60.5389 56.2186ZM85.6466 55.3217C85.6466 71.0133 81.5334 83.1047 73.3075 91.5922C65.0816 100.083 53.5179 104.329 38.6121 104.329H9.64844V10.2998H40.6338C55.0061 10.2998 66.1019 14.1598 73.9211 21.8759C81.7367 29.5959 85.6466 40.7392 85.6466 55.3217Z" fill="#040D1F"></path>
  <path d="M165.875 104.383H188.922V9.95996H165.875V104.383Z" fill="#040D1F"></path>
  <path d="M221.295 69.1627C221.295 75.1826 222.062 79.7746 223.593 82.9303C225.128 86.0897 227.698 87.6679 231.313 87.6679C234.888 87.6679 237.417 86.0897 238.89 82.9303C240.363 79.7746 241.096 75.1826 241.096 69.1627C241.096 63.1739 240.352 58.6568 238.859 55.607C237.363 52.5499 234.812 51.0192 231.194 51.0192C227.656 51.0192 225.128 52.5421 223.593 55.5717C222.062 58.6056 221.295 63.1344 221.295 69.1627ZM264.554 69.1627C264.554 80.6325 261.622 89.5803 255.745 95.994C249.871 102.411 241.649 105.622 231.079 105.622C220.942 105.622 212.873 102.34 206.884 95.7773C200.887 89.2138 197.891 80.3451 197.891 69.1627C197.891 57.7283 200.826 48.8433 206.704 42.5083C212.582 36.1733 220.823 33.0059 231.435 33.0059C237.993 33.0059 243.794 34.4736 248.82 37.405C253.849 40.3364 257.733 44.5348 260.46 50.0041C263.192 55.4657 264.554 61.8557 264.554 69.1627Z" fill="#040D1F"></path>
  <path d="M273.711 104.384H296.762V68.2464V34.2461H273.711V104.384Z" fill="#040D1F"></path>
  <path d="M273.711 25.7621H296.762V9.95605H273.711V25.7621Z" fill="#040D1F"></path>
  <path d="M343.456 86.494C346.568 86.494 350.274 85.6831 354.598 84.0739V101.721C351.49 103.122 348.536 104.126 345.728 104.72C342.919 105.322 339.623 105.621 335.852 105.621C328.113 105.621 322.534 103.626 319.108 99.6437C315.697 95.6617 313.986 89.5475 313.986 81.2962V52.3833H305.914V34.2518H313.986V16.3407L337.214 12.1973V34.2518H351.921V52.3833H337.214V79.6827C337.214 84.2236 339.298 86.494 343.456 86.494Z" fill="#040D1F"></path>
  <path d="M396.812 86.494C399.924 86.494 403.63 85.6831 407.954 84.0739V101.721C404.85 103.122 401.892 104.126 399.083 104.72C396.271 105.322 392.987 105.621 389.207 105.621C381.469 105.621 375.891 103.626 372.472 99.6437C369.054 95.6617 367.342 89.5475 367.342 81.2962V52.3833H359.266V34.2518H367.342V16.0692L390.566 12.1973V34.2518H405.28V52.3833H390.566V79.6827C390.566 84.2236 392.649 86.494 396.812 86.494Z" fill="#040D1F"></path>
  <path d="M437.038 60.6192C437.353 56.7785 438.424 53.9655 440.25 52.1672C442.084 50.3729 444.348 49.4759 447.056 49.4759C450.01 49.4759 452.358 50.4831 454.1 52.5134C455.854 54.5318 456.767 57.2351 456.84 60.6192H437.038ZM469.543 41.2759C464.064 35.7672 456.291 33.0088 446.235 33.0088C435.665 33.0088 427.531 36.1763 421.83 42.5112C416.132 48.8463 413.281 57.9359 413.281 69.7795C413.281 81.2492 416.362 90.0942 422.509 96.3034C428.659 102.513 437.295 105.621 448.418 105.621C453.759 105.621 458.355 105.248 462.208 104.504C466.037 103.768 469.743 102.438 473.338 100.518L469.796 84.7118C467.184 85.8054 464.697 86.6475 462.35 87.2027C458.958 88.0089 455.236 88.4143 451.185 88.4143C446.742 88.4143 443.235 87.3007 440.664 85.0735C438.094 82.8427 436.724 79.766 436.567 75.8468H477.765V65.0773C477.765 54.7169 475.026 46.7806 469.543 41.2759Z" fill="#040D1F"></path>
  <path d="M116.241 60.6192C116.556 56.7785 117.626 53.9655 119.452 52.1672C121.282 50.3729 123.55 49.4759 126.263 49.4759C129.21 49.4759 131.558 50.4831 133.303 52.5134C135.057 54.5318 135.966 57.2351 136.047 60.6192H116.241ZM148.75 41.2759C143.268 35.7672 135.498 33.0088 125.438 33.0088C114.864 33.0088 106.733 36.1763 101.036 42.5112C95.3387 48.8463 92.4844 57.9359 92.4844 69.7795C92.4844 81.2492 95.5612 90.0942 101.715 96.3034C107.862 102.513 116.498 105.621 127.621 105.621C132.962 105.621 137.558 105.248 141.41 104.504C145.239 103.768 148.946 102.438 152.545 100.518L149 84.7118C146.387 85.8054 143.9 86.6475 141.556 87.2027C138.157 88.0089 134.439 88.4143 130.387 88.4143C125.948 88.4143 122.438 87.3007 119.868 85.0735C117.293 82.8427 115.927 79.766 115.77 75.8468H156.969V65.0773C156.969 54.7169 154.229 46.7806 148.75 41.2759Z" fill="#040D1F"></path>
</svg>
