<?xml version="1.0" encoding="UTF-8"?>
<svg xmlns="http://www.w3.org/2000/svg" width="531" height="138" viewBox="0 0 531 138" fill="none">
  <path d="M116.303 0L172.348 136.533V0H116.303ZM21.0312 0V136.533L77.0765 0H21.0312ZM72.2712 108.69H97.8627L109.094 136.477H132.284L96.2987 49.8664L72.2712 108.69Z" fill="#040D1F"></path>
  <path d="M245.253 88.0953L239.106 106.981C238.883 107.665 238.548 107.894 237.877 107.894H226.646C225.975 107.894 225.751 107.551 225.863 106.753L248.997 39.5985C249.444 38.4574 249.779 37.3162 250.002 33.4365C250.002 32.98 250.226 32.6377 250.673 32.6377H266.263C266.821 32.6377 266.933 32.7518 267.045 33.3223L292.972 106.924C293.084 107.608 292.972 107.951 292.302 107.951H279.729C279.171 107.951 278.835 107.723 278.612 107.266L272.074 88.1526H245.253V88.0953ZM268.498 75.6004C266.151 68.012 260.843 52.0936 258.608 44.1058H258.496C256.708 51.8083 252.182 65.2165 248.829 75.6004H268.498Z" fill="#040D1F"></path>
  <path d="M296.992 80.164C296.992 63.561 309.118 50.267 328.898 50.267C330.463 50.267 331.804 50.3811 333.704 50.6093V27.1025C333.704 26.5319 333.928 26.3037 334.375 26.3037H346.612C347.171 26.3037 347.171 26.5319 347.171 26.9884V96.1964C347.171 98.4787 347.394 101.446 347.618 103.557C347.618 104.127 347.506 104.355 346.947 104.584C339.627 107.779 332.475 109.034 325.714 109.034C309.453 109.091 296.992 99.449 296.992 80.164ZM333.704 62.6481C332.251 62.0775 330.463 61.8493 328.452 61.8493C318.449 61.8493 310.962 68.4106 310.962 79.4793C310.962 91.9747 318.282 97.1093 327.222 97.1093C329.457 97.1093 331.692 96.8811 333.76 96.1964V62.6481H333.704Z" fill="#040D1F"></path>
  <path d="M411.939 79.3659C411.939 97.1101 400.819 109.035 385.006 109.035C366.231 109.035 357.961 94.2572 357.961 79.7083C357.961 63.4476 368.41 50.2676 385.23 50.2676C402.551 50.2676 411.939 63.6759 411.939 79.3659ZM371.651 79.4801C371.651 90.0355 376.68 97.3383 385.23 97.3383C392.214 97.3383 398.137 91.5184 398.137 79.7083C398.137 70.1799 394.114 61.85 384.559 61.85C377.071 61.85 371.651 68.5823 371.651 79.4801Z" fill="#040D1F"></path>
  <path d="M435.065 26.3037C435.847 26.3037 436.071 26.4178 436.071 27.2166L436.183 51.8645C439.2 50.8375 442.72 50.267 446.408 50.267C462.557 50.267 472.894 61.9634 472.894 77.3111C472.894 98.536 456.745 109.034 440.094 109.034C434.282 109.034 428.639 108.235 423.275 106.524C422.828 106.409 422.492 105.839 422.492 105.497V27.1025C422.492 26.5319 422.828 26.3037 423.275 26.3037H435.065ZM444.061 62.0775C440.15 62.0775 438.026 62.6481 436.183 63.3328V96.8243C437.747 97.2808 439.423 97.3949 441.323 97.3949C450.543 97.3949 459.037 91.4609 459.037 78.7378C459.092 67.7827 452.946 62.0775 444.061 62.0775Z" fill="#040D1F"></path>
  <path d="M494.58 82.8458C494.916 90.8906 500.057 97.2806 511.511 97.2806C516.54 97.2806 521.178 96.3677 525.425 94.5423C525.759 94.3141 526.095 94.4282 526.095 94.9988V104.527C526.095 105.211 525.874 105.554 525.425 105.782C521.178 107.836 516.205 109.091 508.606 109.091C488.154 109.091 480.891 94.4282 480.891 80.3352C480.891 64.4169 490.333 50.3242 507.264 50.3242C523.861 50.3242 530.285 63.6181 530.285 74.5159C530.285 77.7106 530.175 80.3352 529.838 81.6478C529.728 82.1043 529.502 82.3325 528.945 82.4461C527.383 82.7884 522.911 82.9026 517.379 82.9026H494.58V82.8458ZM511.288 72.9751C515.534 72.9751 516.988 72.9751 517.434 72.8609C517.434 72.5186 517.434 72.0621 517.434 71.948C517.434 68.6392 515.2 61.279 506.65 61.279C498.883 61.279 495.418 67.3266 494.525 72.9751H511.288Z" fill="#040D1F"></path>
</svg>
